# xmcd CD database file
#
# Track frame offsets:
#	150
#	22825
#	53447
#	80645
#	99745
#	129455
#	150682
#	174300
#	204545
#	231657
#
# Disc length: 3405 seconds
#
# Revision: 0
# Processed by: cddbd v1.4PL0 Copyright (c) Steve Scherf et al.
# Submitted via: CDex 1.50Beta7
#
DISCID=7a0d4b0a
DTITLE=Bob Thompson - Lady First
DYEAR=1997
DGENRE=Jazz
TTITLE0=Arosa
TTITLE1=First Born
TTITLE2=Delilah
TTITLE3=Summer Song
TTITLE4=The Hump
TTITLE5=The Present
TTITLE6=You Bedda don't Do Dat
TTITLE7=Elicia
TTITLE8=Brothers Keeper
TTITLE9=Lady First
EXTD=YEAR: 1997
EXTT0=
EXTT1=
EXTT2=
EXTT3=
EXTT4=
EXTT5=
EXTT6=
EXTT7=
EXTT8=
EXTT9=
PLAYORDER=
